HIERARCHY
ROOT Root
{
	OFFSET 0.00000 0.00000 0.00000
	CHANNELS 6 Xposition Yposition Zposition Zrotation Xrotation Yrotation
	JOINT Hips
	{
		OFFSET 0 0 0	
		CHANNELS 3 Zrotation Xrotation Yrotation
		JOINT Spine
		{
			OFFSET 0 4 0	
			CHANNELS 3 Zrotation Xrotation Yrotation
			JOINT Spine1
			{
				OFFSET 0 19.4 0	
				CHANNELS 3 Zrotation Xrotation Yrotation
				JOINT Spine2
				{
					OFFSET 0 16.6 0	
					CHANNELS 3 Zrotation Xrotation Yrotation
					JOINT LeftCollar
					{
						OFFSET 0 10 0	
						CHANNELS 3 Zrotation Xrotation Yrotation
						JOINT LeftArm
						{
							OFFSET 15.6 -2 3	
							CHANNELS 3 Zrotation Xrotation Yrotation
							JOINT LeftForeArm
							{
								OFFSET 3.5 -27 -1	
								CHANNELS 3 Zrotation Xrotation Yrotation
								JOINT LeftHand
								{
									OFFSET 1 -27 1	
									CHANNELS 3 Zrotation Xrotation Yrotation
									End Site
									{
										OFFSET 0 -15 0
									}
								}
							}
						}
					}
					JOINT RightCollar
					{
						OFFSET 0 10 0	
						CHANNELS 3 Zrotation Xrotation Yrotation
						JOINT RightArm
						{
							OFFSET -15.6 -2 3	
							CHANNELS 3 Zrotation Xrotation Yrotation
							JOINT RightForeArm
							{
								OFFSET -3.5 -27 -1	
								CHANNELS 3 Zrotation Xrotation Yrotation
								JOINT RightHand
								{
									OFFSET -1 -27 1	
									CHANNELS 3 Zrotation Xrotation Yrotation
									End Site
									{
										OFFSET 0 -15 0
									}
								}
							}
						}
					}
					JOINT Neck
					{
						OFFSET 0 10 0	
						CHANNELS 3 Zrotation Xrotation Yrotation
						JOINT Head
						{
							OFFSET 0 12.7 3	
							CHANNELS 3 Zrotation Xrotation Yrotation
							End Site
							{
								OFFSET 0 12.7 3
							}
						}
					}
				}
			}
		}
	}
	JOINT LeftHip
	{
		OFFSET 0 0 0	
		CHANNELS 3 Zrotation Xrotation Yrotation
		JOINT LeftUpLeg
		{
			OFFSET 8.8 -6 0	
			CHANNELS 3 Zrotation Xrotation Yrotation
			JOINT LeftLeg
			{
				OFFSET 0 -39 2	
				CHANNELS 3 Zrotation Xrotation Yrotation
				JOINT LeftFoot
				{
					OFFSET 0 -43 -2	
					CHANNELS 3 Zrotation Xrotation Yrotation
					JOINT LeftFootFront
					{
						OFFSET 0 -7 8.5	
						CHANNELS 3 Zrotation Xrotation Yrotation
						End Site
						{
							OFFSET 0 -0.5 9
						}
					}
				}
				JOINT LeftHeel
				{
					OFFSET 0 -43 -2	
					CHANNELS 3 Zrotation Xrotation Yrotation
					End Site
					{
						OFFSET 0 -7.5 -5
					}
				}
			}
		}
	}
	JOINT RightHip
	{
		OFFSET 0 0 0	
		CHANNELS 3 Zrotation Xrotation Yrotation
		JOINT RightUpLeg
		{
			OFFSET -8.8 -6 0	
			CHANNELS 3 Zrotation Xrotation Yrotation
			JOINT RightLeg
			{
				OFFSET 0 -39 2	
				CHANNELS 3 Zrotation Xrotation Yrotation
				JOINT RightFoot
				{
					OFFSET 0 -43 -2	
					CHANNELS 3 Zrotation Xrotation Yrotation
					JOINT RightFootFront
					{
						OFFSET 0 -7 8.5	
						CHANNELS 3 Zrotation Xrotation Yrotation
						End Site
						{
							OFFSET 0 -0.5 9
						}
					}
				}
				JOINT RightHeel
				{
					OFFSET 0 -43 -2	
					CHANNELS 3 Zrotation Xrotation Yrotation
					End Site
					{
						OFFSET 0 -7.5 -5
					}
				}
			}
		}
	}
}
MOTION
Frames: 14
Frame Time: 0.025
0 95.286 0 -0 0 -0 -0.10911 0.92505 2.0248 0.33013 -0.36681 -1.4183 0.33013 -0.36681 -1.4183 0.27792 -0.30757 -1.1915 -0 0 -0 -0.88835 -0.63055 -2.6592 -0.41446 -0.96207 -1.9045 -0.48047 -0.35393 -1.8138 -0 0 -0 1.7798 -0.30206 10.045 -0.20679 1.9365 4.8957 -0.73098 0.87229 2.457 -0.15687 1.0431 2.3885 0.14279 0.73853 1.1961 -0.10911 0.92505 2.0248 -0.48241 0.0080906 -0.12846 -2.1049 2.3058 -2.4083 3.7301 -3.1942 0.77161 -0 0 1.2506e-09 -0 0 -0 -0.10911 0.92505 2.0248 0.40329 -0.9009 -1.386 -1.7328 6.3539 2.1871 -0.24187 -7.4453 -3.2886 0 0 -8.3376e-10 -0 0 -0 
-0.00057262 95.287 0.0070439 -0 0 -0 -0.11514 0.92865 2.023 0.33201 -0.36573 -1.417 0.33201 -0.36573 -1.417 0.2795 -0.30666 -1.1904 -0 0 -0 -0.89691 -0.62296 -2.659 -0.41254 -0.96132 -1.9038 -0.47179 -0.36814 -1.8169 -0 0 -0 1.7722 -0.29395 10.067 -0.19416 1.941 4.8746 -0.73861 0.85239 2.4536 -0.1485 1.0529 2.3816 0.15292 0.74913 1.1903 -0.11514 0.92865 2.023 -0.4832 0.018226 -0.11523 -2.0952 2.2976 -2.4141 3.7275 -3.2 0.76587 0.0042313 0.0066035 -0.0042718 -0 0 -0 -0.11514 0.92865 2.023 0.41225 -0.8892 -1.3916 -1.7338 6.3495 2.2007 -0.24559 -7.4564 -3.2954 -0.0053921 -0.00081477 0.0031024 -0 0 -0 
-0.00098921 95.289 0.014806 -0 0 -0 -0.12406 0.93165 2.0219 0.33633 -0.36073 -1.4153 0.33633 -0.36073 -1.4153 0.28312 -0.30246 -1.189 -0 0 -0 -0.91154 -0.62002 -2.6597 -0.41114 -0.9655 -1.9057 -0.46196 -0.35984 -1.8243 -0 0 -0 1.7572 -0.29011 10.098 -0.18211 1.9432 4.8461 -0.73361 0.85489 2.4389 -0.13955 1.061 2.3714 0.16562 0.76122 1.1816 -0.12406 0.93165 2.0219 -0.48372 0.034206 -0.098106 -2.0817 2.2862 -2.4222 3.728 -3.2013 0.75374 0.0058928 0.0082976 -0.0069997 -0 0 -0 -0.12406 0.93165 2.0219 0.42546 -0.8752 -1.4017 -1.7356 6.3472 2.2209 -0.25625 -7.4723 -3.3027 -0.0075182 -0.0011511 0.0043352 -0 0 -0 
-0.0011557 95.291 0.023257 -0 0 -0 -0.1321 0.93378 2.019 0.33418 -0.35575 -1.4069 0.33418 -0.35575 -1.4069 0.2813 -0.29828 -1.1819 -0 0 -0 -0.90692 -0.61275 -2.6783 -0.41667 -0.98257 -1.8947 -0.45317 -0.33745 -1.8406 -0 0 -0 1.7586 -0.28332 10.113 -0.17757 1.9448 4.8192 -0.71334 0.86678 2.4221 -0.11873 1.0705 2.3493 0.18468 0.77443 1.1667 -0.1321 0.93378 2.019 -0.4857 0.052161 -0.078278 -2.067 2.2735 -2.4306 3.7295 -3.2008 0.73812 0.0049855 0.010847 -0.0090397 -0 0 -0 -0.1321 0.93378 2.019 0.43712 -0.86595 -1.4094 -1.7363 6.3508 2.2409 -0.26965 -7.4884 -3.3095 -0.007849 -0.0012701 0.004447 -0 0 -0 
-0.00096966 95.293 0.032278 -0 0 -0 -0.13739 0.93429 2.0071 0.32255 -0.35009 -1.386 0.32255 -0.35009 -1.386 0.27151 -0.29355 -1.1644 -0 0 -0 -0.8761 -0.60333 -2.7323 -0.42983 -1.0142 -1.8461 -0.44857 -0.30607 -1.8879 -0 0 -0 1.784 -0.27588 10.1 -0.17663 1.9493 4.7988 -0.68568 0.8727 2.4058 -0.083491 1.0806 2.3078 0.21 0.78856 1.1429 -0.13739 0.93429 2.0071 -0.49119 0.075264 -0.047543 -2.0491 2.2553 -2.4378 3.7276 -3.1958 0.71706 0.0021048 0.015697 -0.0099517 -0 0 -0 -0.13739 0.93429 2.0071 0.44465 -0.85809 -1.4085 -1.7343 6.3556 2.2611 -0.28457 -7.5026 -3.3161 -0.0077599 -0.0015671 0.003628 -0 0 -0 
-0.00032724 95.295 0.041664 -0 0 -0 -0.13897 0.93113 1.9856 0.30778 -0.34265 -1.3567 0.30778 -0.34265 -1.3567 0.25908 -0.28734 -1.1398 -0 0 -0 -0.83776 -0.59669 -2.8206 -0.43555 -1.0486 -1.7761 -0.45414 -0.27791 -1.9426 -0 0 -0 1.8168 -0.27036 10.068 -0.17433 1.9528 4.7881 -0.66936 0.86596 2.3809 -0.049441 1.0916 2.2534 0.23137 0.80499 1.1132 -0.13897 0.93113 1.9856 -0.50226 0.1103 -0.0032276 -2.0245 2.2231 -2.4415 3.7174 -3.181 0.68654 -0.0048815 0.016177 -0.0045336 -0 0 -0 -0.13897 0.93113 1.9856 0.44647 -0.84373 -1.403 -1.7288 6.3516 2.2851 -0.30066 -7.511 -3.3226 -0.0073883 -0.0018852 0.0018369 -0 0 -0 
0.00086815 95.298 0.051142 -0 0 -0 -0.14057 0.92931 1.9664 0.29594 -0.33582 -1.3303 0.29594 -0.33582 -1.3303 0.24911 -0.28162 -1.1176 -0 0 -0 -0.81083 -0.59478 -2.9113 -0.42811 -1.0768 -1.7136 -0.46249 -0.26435 -1.9642 -0 0 -0 1.8463 -0.26689 10.03 -0.16793 1.9508 4.792 -0.67507 0.86208 2.3504 -0.027893 1.104 2.2015 0.24276 0.82274 1.0836 -0.14057 0.92931 1.9664 -0.51665 0.14774 0.037434 -1.9942 2.1793 -2.4374 3.697 -3.1586 0.65402 -0.012275 0.017701 0.00036053 -0 0 -0 -0.14057 0.92931 1.9664 0.44607 -0.82438 -1.4056 -1.7214 6.333 2.3123 -0.31603 -7.5115 -3.3284 -0.0071749 -0.0013907 0.00084694 -0 0 -0 
0.0026812 95.3 0.060382 -0 0 -0 -0.14391 0.93026 1.9544 0.28858 -0.33295 -1.3113 0.28858 -0.33295 -1.3113 0.24292 -0.27924 -1.1016 -0 0 -0 -0.80402 -0.5943 -2.9738 -0.40656 -1.0893 -1.6859 -0.47401 -0.26571 -1.9449 -0 0 -0 1.8698 -0.25811 9.9963 -0.16017 1.943 4.8117 -0.6833 0.88425 2.3246 -0.020935 1.1215 2.1625 0.24355 0.84246 1.0607 -0.14391 0.93026 1.9544 -0.53057 0.17441 0.058834 -1.9672 2.1383 -2.423 3.6731 -3.1296 0.62783 -0.014001 -0.072893 0.00075574 -0 0 -0 -0.14391 0.93026 1.9544 0.44425 -0.80311 -1.4109 -1.7125 6.3058 2.333 -0.32854 -7.5076 -3.3331 -0.0072137 6.0641e-06 0.00060056 -0 0 -0 
0.00512 95.302 0.069019 -0 0 -0 -0.14599 0.93089 1.9432 0.28466 -0.33302 -1.2952 0.28466 -0.33302 -1.2952 0.23962 -0.2793 -1.0881 -0 0 -0 -0.8132 -0.59535 -3.0033 -0.37502 -1.0806 -1.7042 -0.48861 -0.28063 -1.9077 -0 0 -0 1.8828 -0.24089 9.9778 -0.15737 1.9282 4.8363 -0.67069 0.92116 2.2993 -0.025207 1.1423 2.1392 0.23611 0.86329 1.0509 -0.14599 0.93089 1.9432 -0.54363 0.18629 0.065427 -1.9509 2.1117 -2.4019 3.6559 -3.0994 0.6101 -0.010094 -0.095661 -0.00202 -0 0 -0 -0.14599 0.93089 1.9432 0.4395 -0.78315 -1.4054 -1.7046 6.2799 2.343 -0.33725 -7.5019 -3.3383 -0.0069341 0.0010947 0.00064707 -0 0 -0 
0.0081264 95.305 0.076693 -0 0 -0 -0.14349 0.929 1.9292 0.28326 -0.33235 -1.2805 0.28326 -0.33235 -1.2805 0.23843 -0.27875 -1.0757 -0 0 -0 -0.83307 -0.59967 -3.0024 -0.33797 -1.0555 -1.7596 -0.50566 -0.30963 -1.8636 -0 0 -0 1.8787 -0.22012 9.978 -0.15612 1.9093 4.8536 -0.64483 0.93603 2.2662 -0.036128 1.1603 2.1338 0.2241 0.88203 1.0578 -0.14349 0.929 1.9292 -0.55921 0.19155 0.067816 -1.9433 2.0954 -2.3799 3.6496 -3.073 0.59638 -0.0049517 -0.11109 -0.0051366 -0 0 -0 -0.14349 0.929 1.9292 0.43162 -0.76738 -1.3933 -1.7 6.2607 2.3493 -0.34338 -7.4948 -3.3434 -0.0070816 0.00095888 0.0014981 -0 0 -0 
0.011572 95.307 0.083108 -0 0 -0 -0.13952 0.92631 1.914 0.28622 -0.33228 -1.2688 0.28622 -0.33228 -1.2688 0.24092 -0.27869 -1.0659 -0 0 -0 -0.86306 -0.59821 -2.984 -0.29847 -1.0254 -1.8212 -0.52612 -0.34463 -1.8265 -0 0 -0 1.8539 -0.19741 9.9933 -0.14424 1.8961 4.8502 -0.62938 0.91658 2.2414 -0.051774 1.1766 2.1446 0.21105 0.89871 1.0784 -0.13952 0.92631 1.914 -0.57477 0.19755 0.072676 -1.9407 2.0804 -2.3625 3.6524 -3.0511 0.58341 -0.0011469 -0.12151 -0.0067311 -0 0 -0 -0.13952 0.92631 1.914 0.42318 -0.75542 -1.3838 -1.6978 6.246 2.3576 -0.3484 -7.4878 -3.3456 -0.0084727 -0.0012749 0.0030607 -0 0 -0 
0.015305 95.31 0.088393 -0 0 -0 -0.13824 0.92421 1.9008 0.2943 -0.33304 -1.2601 0.2943 -0.33304 -1.2601 0.2477 -0.27932 -1.0586 -0 0 -0 -0.8976 -0.58718 -2.9743 -0.26132 -1 -1.8552 -0.54334 -0.36966 -1.8185 -0 0 -0 1.8166 -0.1792 10.019 -0.11973 1.8923 4.829 -0.63279 0.8877 2.2279 -0.069927 1.1904 2.1609 0.19979 0.91221 1.1019 -0.13824 0.92421 1.9008 -0.58508 0.20692 0.080596 -1.9407 2.0624 -2.3501 3.6591 -3.0341 0.56893 0.00026738 -0.12821 -0.0075979 -0 0 -0 -0.13824 0.92421 1.9008 0.41708 -0.74063 -1.3826 -1.6973 6.2273 2.3692 -0.35312 -7.4829 -3.3431 -0.009559 -0.0039085 0.0032747 -0 0 -0 
0.019166 95.312 0.09193 -0 0 -0 -0.1409 0.92427 1.8926 0.30819 -0.33004 -1.2532 0.30819 -0.33004 -1.2532 0.25937 -0.27679 -1.0528 -0 0 -0 -0.93647 -0.58158 -2.9852 -0.23106 -0.97924 -1.8503 -0.54737 -0.38203 -1.8394 -0 0 -0 1.7806 -0.17702 10.053 -0.095927 1.8948 4.7916 -0.65317 0.86876 2.2251 -0.090572 1.1918 2.1688 0.19072 0.91648 1.1154 -0.1409 0.92427 1.8926 -0.58849 0.21614 0.09015 -1.9414 2.0437 -2.3415 3.6653 -3.0221 0.5507 0.000904 -0.13091 -0.0078857 -0 0 -0 -0.1409 0.92427 1.8926 0.41601 -0.72252 -1.3923 -1.7004 6.2019 2.3842 -0.35684 -7.4797 -3.3382 -0.0084398 -0.0042698 0.002924 -0 0 -0 
0.023045 95.314 0.093818 -0 0 -0 -0.14703 0.93204 1.8894 0.32608 -0.32486 -1.2442 0.32608 -0.32486 -1.2442 0.27438 -0.27241 -1.0453 -0 0 -0 -0.97879 -0.58665 -3.017 -0.20893 -0.95934 -1.8167 -0.53885 -0.39036 -1.8707 -0 0 -0 1.7593 -0.18368 10.071 -0.087838 1.9019 4.7526 -0.67639 0.8541 2.2315 -0.10783 1.182 2.156 0.18813 0.91134 1.1101 -0.14703 0.93204 1.8894 -0.58812 0.21657 0.10203 -1.9403 2.0276 -2.3384 3.6699 -3.0129 0.53056 0.00080219 -0.13349 -0.007724 -0 0 -0 -0.14703 0.93204 1.8894 0.42014 -0.70773 -1.4103 -1.7063 6.1679 2.3994 -0.35836 -7.4731 -3.33 -0.0071744 -0.0036375 0.0032836 -0 0 -0 
